<?xml version="1.0" encoding="utf-8"?>
<!-- Generator: Adobe Illustrator 24.2.0, SVG Export Plug-In . SVG Version: 6.00 Build 0)  -->
<svg version="1.1" id="Layer_1" xmlns="http://www.w3.org/2000/svg" xmlns:xlink="http://www.w3.org/1999/xlink" x="0px" y="0px"
	 viewBox="0 0 94.3 99.4" style="enable-background:new 0 0 94.3 99.4;" xml:space="preserve">
<style type="text/css">
	.st0{fill:#FFFFFF;}
</style>
<g>
	<path class="st0" d="M42.6,70.1V26.2h19.7c4.7,0,8.4,1,11,2.7c2.6,1.9,3.9,4.4,3.9,7.9c0,2.9-0.9,5-2.4,6.7s-3.9,2.9-6.9,3.4
		c3.6,0.6,6.4,1.9,8.3,3.7s2.9,4.4,2.9,7.6c0,3.9-1.4,6.7-4.1,8.9c-2.9,2-6.9,3-12.4,3H42.6L42.6,70.1z M62.6,46.5
		c4.3,0,7.4-0.9,9.6-2.4c2.1-1.6,3.3-4,3.3-7c0-3.1-1.1-5.6-3.3-7.1c-2.1-1.6-5.6-2.3-10.1-2.3H44.2v18.9H62.6z M62.2,68.8
		c10.1,0,15.3-3.6,15.3-10.4c0-3.3-1.3-5.9-3.7-7.7c-2.4-1.9-6-2.7-10.3-2.7H44.2v21h18V68.8z"/>
</g>
<g>
	<path class="st0" d="M17.5,55.3c0.6,4.4,2.4,7.9,5.3,10.4c3,2.6,6.9,3.9,11.6,4c4.1,0.1,7.7-0.6,10.7-2.3s5.4-4,7-7.1
		c1.7-3.1,2.6-6.9,2.7-11.3c0.1-4.6-0.4-8.4-2-11.7c-1.6-3.3-3.7-6-6.6-7.9c-2.9-1.9-6.3-2.9-10.1-3c-8.9-0.3-14.6,3.7-17.3,12.3
		l-1.1-0.4c1.3-4.6,3.6-7.9,6.7-10.1s7.1-3.3,11.9-3.1c4.3,0.1,8,1.3,11.1,3.4c3.1,2.1,5.4,4.9,7,8.4c1.6,3.6,2.3,7.6,2,12.3
		c-0.1,4.7-1.1,8.9-3.1,12.1c-2,3.3-4.4,5.9-7.7,7.6s-7,2.4-11.3,2.3c-5.1-0.1-9.3-1.7-12.6-4.6c-3.3-2.9-5.1-6.6-5.7-11.3H17.5z"/>
</g>
</svg>
