<?xml version="1.0" encoding="utf-8"?>
<!-- Generator: Adobe Illustrator 24.2.0, SVG Export Plug-In . SVG Version: 6.00 Build 0)  -->
<svg version="1.1" id="Layer_1" xmlns="http://www.w3.org/2000/svg" xmlns:xlink="http://www.w3.org/1999/xlink" x="0px" y="0px"
	 viewBox="0 0 94.3 99.4" style="enable-background:new 0 0 94.3 99.4;" xml:space="preserve">
<style type="text/css">
	.st0{fill:#8BD1D9;}
	.st1{fill:#FFFFFF;}
</style>
<circle class="st0" cx="47.9" cy="46.4" r="36.8"/>
<g>
	<path class="st1" d="M45.1,62.2V31.5h13.8c3.3,0,5.9,0.7,7.7,1.9c1.8,1.3,2.7,3.1,2.7,5.5c0,2-0.6,3.5-1.7,4.7
		c-1.1,1.2-2.7,2-4.8,2.4c2.5,0.4,4.5,1.3,5.8,2.6s2,3.1,2,5.3c0,2.7-1,4.7-2.9,6.2c-2,1.4-4.8,2.1-8.7,2.1L45.1,62.2L45.1,62.2z
		 M59.1,45.7c3,0,5.2-0.6,6.7-1.7c1.5-1.1,2.3-2.8,2.3-4.9c0-2.2-0.8-3.9-2.3-5s-3.9-1.6-7.1-1.6H46.2v13.2H59.1z M58.8,61.3
		c7.1,0,10.7-2.5,10.7-7.3c0-2.3-0.9-4.1-2.6-5.4s-4.2-1.9-7.2-1.9H46.2v14.7H58.8z"/>
</g>
<g>
	<path class="st1" d="M27.5,51.9c0.4,3.1,1.7,5.5,3.7,7.3c2.1,1.8,4.8,2.7,8.1,2.8c2.9,0.1,5.4-0.4,7.5-1.6c2.1-1.2,3.8-2.8,4.9-5
		c1.2-2.2,1.8-4.8,1.9-7.9c0.1-3.2-0.3-5.9-1.4-8.2s-2.6-4.2-4.6-5.5c-2-1.3-4.4-2-7.1-2.1c-6.2-0.2-10.2,2.6-12.1,8.6L27.6,40
		c0.9-3.2,2.5-5.5,4.7-7.1s5-2.3,8.3-2.2c3,0.1,5.6,0.9,7.8,2.4c2.2,1.5,3.8,3.4,4.9,5.9s1.6,5.3,1.4,8.6c-0.1,3.3-0.8,6.2-2.2,8.5
		s-3.1,4.1-5.4,5.3c-2.3,1.2-4.9,1.7-7.9,1.6c-3.6-0.1-6.5-1.2-8.8-3.2s-3.6-4.6-4-7.9L27.5,51.9z"/>
</g>
</svg>
